<?xml version="1.0" standalone="no"?><!DOCTYPE svg PUBLIC "-//W3C//DTD SVG 1.1//EN" "http://www.w3.org/Graphics/SVG/1.1/DTD/svg11.dtd"><svg t="1685970847694" class="icon" viewBox="0 0 1261 1024" version="1.1" xmlns="http://www.w3.org/2000/svg" p-id="7091" xmlns:xlink="http://www.w3.org/1999/xlink" width="246.2890625" height="200"><path d="M265.062989 62.146207c24.481839 6.355862 37.193563 12.476322 49.434482 23.069425 8.709885 7.768276 19.773793 27.542069 19.773793 35.545747 0 7.062069 9.416092 24.481839 18.125977 33.427127 11.063908 11.534713 28.71908 22.598621 48.257472 30.131494 20.715402 8.474483 23.304828 8.003678 4.708046-0.706207-30.366897-14.124138-43.314023-30.602299-46.609656-59.085977-1.883218-17.41977-4.708046-23.775632-15.301149-34.604138-15.301149-15.536552-52.730115-29.66069-84.509425-32.250115l-15.30115-1.177011 21.42161 5.649655zM960.441379 60.262989c-38.841379 8.23908-66.383448 23.54023-76.034942 42.607816-2.118621 3.766437-4.708046 14.35954-5.885058 23.304827-2.824828 19.773793-7.297471 29.425287-19.067586 40.489196-8.945287 8.474483-28.248276 19.302989-34.133333 19.302988-1.883218 0-4.237241 1.177011-5.178851 2.589425-2.354023 4.001839 6.591264 0.706207 30.837701-10.828505 32.956322-15.771954 44.491034-29.66069 55.554943-66.618851 3.766437-13.182529 17.41977-28.483678 32.485517-36.722759 6.591264-3.531034 21.892414-8.945287 33.897931-12.005517 17.184368-4.472644 19.773793-5.414253 12.24092-5.414253-5.178851 0-16.242759 1.412414-24.717242 3.295633zM247.172414 81.92c4.708046 9.651494 8.003678 21.421609 9.651494 34.133333 4.708046 34.83954 9.416092 53.436322 19.067586 72.739311 18.125977 35.781149 49.434483 59.321379 83.567816 62.381609 19.067586 1.647816 23.54023 3.766437 27.071265 12.005517 2.118621 5.414253 2.824828 5.649655 3.531034 2.118621 2.118621-8.709885-2.118621-20.950805-10.357701-30.131494-9.886897-11.063908-19.773793-16.478161-39.547586-22.127817-47.315862-13.653333-69.443678-39.782989-76.505747-89.923678-2.824828-20.48-9.651494-39.547586-17.655173-48.963678-5.649655-6.591264-5.414253-6.355862 1.177012 7.768276zM987.748046 80.507586c-8.474483 14.594943-10.357701 20.48-14.35954 45.903448-4.237241 26.129655-11.063908 42.372414-24.481839 57.673564-10.593103 11.770115-31.073103 23.775632-48.492874 28.012873-32.250115 7.768276-53.20092 27.542069-52.965517 49.905288l0.235402 7.532873 3.531035-6.355862c4.472644-8.23908 10.122299-11.29931 21.657011-11.29931 25.188046 0 58.37977-18.361379 76.270345-41.901609 17.184368-22.598621 24.717241-44.961839 32.485517-96.750345 1.177011-9.416092 4.943448-22.598621 8.239081-29.189885 7.062069-15.065747 5.885057-17.184368-2.118621-3.531035zM149.245057 283.188966c1.177011 28.954483 11.534713 49.905287 36.251954 74.151724 32.956322 32.014713 69.443678 52.25931 115.817932 64.029425 28.71908 7.062069 49.905287 15.536552 66.148046 26.365057 16.478161 11.063908 21.186207 17.655172 13.417931 18.832184-9.18069 1.412414-14.35954 14.35954-15.771954 40.018391l-1.412414 23.069425-18.832184-24.011034c-32.72092-41.666207-51.317701-59.792184-70.62069-68.972874-9.416092-4.472644-22.127816-8.709885-28.483678-9.416092l-11.534713-1.177011 8.239081 3.06023c50.611494 20.009195 72.503908 44.491034 123.586207 138.887356 19.538391 35.781149 25.658851 42.607816 40.724597 46.138851 12.476322 2.824828 23.775632 0.706207 54.142529-10.122299 14.594943-5.414253 18.361379-5.885057 26.129655-3.766437 11.063908 2.824828 24.246437 16.713563 28.719081 29.66069 2.824828 8.709885 3.06023 8.945287 4.708046 3.295632l1.647816-5.885058 0.235402 5.885058c0.235402 7.297471-3.531034 11.770115-9.886896 11.770115-2.824828 0-4.001839 1.177011-3.295633 2.824827 7.062069 16.007356 13.417931 32.485517 14.594943 38.370575 0.706207 3.766437-2.354023-2.354023-6.826667-13.888735-13.888736-35.545747-29.896092-53.907126-49.434482-56.731955-6.591264-0.941609-14.830345 0.235402-26.129656 3.531035-40.724598 12.476322-42.607816 12.711724-53.907126 8.474483-16.713563-6.355862-53.20092-31.77931-69.914483-48.728276-10.593103-10.828506-17.41977-20.244598-21.186207-29.189885-6.12046-14.830345-8.709885-13.182529-8.945287 5.885057-0.235402 14.594943 7.768276 32.250115 26.365057 59.556782 18.596782 27.071264 20.48 32.72092 14.124138 41.195402-5.885057 8.23908-17.655172 13.653333-40.253793 19.067586-16.242759 4.001839-17.41977 4.472644-11.063908 6.12046 4.001839 0.941609 10.828506 2.589425 15.30115 3.766437 14.124138 4.001839 61.204598 5.414253 75.79954 2.354023 7.532874-1.647816 19.538391-6.826667 28.248276-12.24092 28.248276-17.890575 39.312184-22.127816 56.261149-22.127816 12.947126 0 16.948966 0.941609 25.188046 6.591265 22.363218 14.594943 45.432644 59.792184 59.321379 116.288735 3.06023 12.005517 6.591264 22.127816 8.239081 22.834023 1.647816 0.470805 6.12046-3.766437 10.122299-10.122299 6.355862-10.593103 7.062069-13.653333 8.474482-40.489195 2.824828-50.14069 6.355862-83.097011 10.122299-90.865287 1.883218-4.237241 9.886897-13.417931 17.41977-20.48 7.768276-7.062069 13.888736-14.124138 13.888736-15.771954 0-1.647816-3.531034-6.355862-8.003678-10.593104-4.237241-4.001839-16.713563-20.009195-27.542069-35.545747-21.186207-29.896092-32.014713-43.078621-35.074943-43.078621-1.177011 0-2.118621 4.001839-1.883218 8.945288 0.235402 14.830345-9.886897 29.66069-26.365057 39.076781-6.826667 3.766437-8.709885 5.885057-6.12046 6.826667 3.766437 1.412414 14.124138 18.596782 16.713563 27.542069 0.706207 3.295632-1.647816 0.235402-5.649655-6.355862-8.474483-14.35954-25.423448-28.483678-47.551265-39.547586-22.363218-11.29931-31.543908-23.069425-47.551264-60.733793-28.71908-66.618851-69.67908-115.111724-127.117241-149.245058-23.54023-14.124138-48.022069-23.775632-80.507587-31.77931-28.954483-7.062069-42.843218-13.888736-49.669885-24.246437-2.118621-3.06023-5.178851-13.417931-7.062069-22.834023l-3.295632-17.184368 0.941609 20.715403zM536.717241 739.163218c4.001839 18.832184 6.826667 36.722759 6.826667 40.018391l-0.470805 5.885058-0.941609-5.885058c-1.177011-7.062069-14.124138-71.562299-16.007356-80.036781l-1.412414-5.885058 2.589425 5.885058c1.412414 3.06023 5.649655 20.950805 9.416092 40.01839zM1086.617011 277.068506c-3.531034 30.131494-12.947126 38.605977-55.31954 49.19908-49.669885 12.476322-80.507586 27.542069-119.348965 58.37977-32.485517 25.894253-67.795862 71.797701-82.861609 107.814253-22.834023 54.377931-28.954483 62.617011-57.673564 77.682759-18.125977 9.651494-36.016552 24.246437-44.726436 37.193563-4.001839 5.649655-4.001839 5.649655-0.235403-2.354023 2.118621-4.472644 6.355862-11.063908 9.651495-14.594942l5.885057-6.12046-5.178851-1.647816c-14.594943-4.708046-30.602299-27.071264-30.602298-42.843219v-8.709885l-8.239081 8.003678c-4.708046 4.472644-18.125977 21.657011-29.896092 38.370575-11.770115 16.713563-24.481839 32.485517-28.012873 35.310345-3.766437 2.589425-6.826667 6.12046-6.826667 7.532873 0 1.412414 6.355862 8.709885 14.124138 16.007357 7.768276 7.297471 15.536552 16.478161 17.41977 20.009195 4.943448 9.416092 8.003678 36.251954 9.886897 81.92 1.412414 36.722759 2.118621 40.253793 7.062068 46.138851 2.824828 3.766437 5.885057 8.709885 6.826667 11.29931 2.589425 8.003678 8.003678 5.414253 10.593104-5.414253 16.478161-63.087816 30.602299-96.750345 50.376092-118.642758 13.653333-15.065747 26.835862-20.715402 44.726436-18.832184 13.653333 1.412414 15.301149 2.118621 41.430805 18.596781 21.421609 13.417931 39.076782 18.361379 66.148046 18.36138 19.302989 0 56.025747-5.414253 62.852414-9.18069 1.883218-1.177011-4.001839-3.295632-14.830345-5.649655-19.302989-4.237241-29.425287-8.709885-36.722759-16.007357-8.003678-8.003678-5.649655-16.713563 11.299311-41.430804 21.186207-31.543908 27.306667-45.432644 27.306666-62.381609 0-7.532874-1.177011-15.065747-2.589425-16.478161-2.118621-2.118621-2.824828-1.883218-2.824828 1.177011 0 20.244598-51.553103 69.443678-91.100689 86.863449-12.476322 5.414253-17.184368 4.943448-50.14069-5.414253-16.948966-5.414253-24.717241-6.826667-32.250115-5.649656-33.191724 4.943448-54.613333 48.728276-72.73931 149.48046-4.001839 22.598621-5.414253 27.071264-4.472644 15.771954 2.589425-32.956322 20.009195-103.106207 30.837701-124.763218l5.649655-11.063908h-5.649655c-6.12046 0-12.005517-7.297471-9.886896-12.476322 0.470805-1.647816 1.177011-0.706207 1.177011 1.883218 0.235402 3.295632 1.647816 1.647816 4.708046-4.943448 6.355862-13.888736 18.361379-26.365057 28.248276-29.425287 7.532874-2.354023 11.063908-1.647816 26.365058 3.766437 33.191724 12.005517 41.666207 13.653333 54.142528 10.593103 6.826667-1.647816 14.124138-5.414253 17.890575-9.416092 3.766437-3.766437 16.007356-24.011034 27.542069-45.197241 45.903448-84.509425 70.385287-111.345287 119.113563-130.648276l8.239081-3.06023-11.063908 1.177011c-16.713563 1.647816-40.018391 13.417931-55.084138 27.542069-7.297471 6.826667-24.011034 25.658851-36.958161 41.90161s-24.717241 30.602299-26.129655 32.250115c-1.883218 2.118621-2.589425-3.06023-2.589426-20.009196 0-26.365057-4.943448-40.489195-15.301149-43.078621l-5.885058-1.412413 8.945288-8.474483c12.476322-12.005517 42.843218-26.129655 72.268505-33.427127 51.082299-12.947126 86.157241-31.77931 120.290575-65.206436 24.481839-23.775632 35.074943-44.961839 36.722759-73.445518 1.412414-22.834023-0.235402-27.306667-2.589426-6.826666zM436.671264 275.656092c-19.302989 5.649655-28.012874 26.129655-28.248275 65.677241 0 19.538391 1.177011 28.012874 5.414252 40.253793 7.297471 20.950805 20.244598 42.137011 35.78115 57.908966 16.713563 17.184368 28.954483 25.188046 44.726437 29.66069 16.948966 4.943448 31.073103 16.007356 46.845057 36.722758 13.182529 17.41977 28.71908 32.956322 37.89977 37.89977 5.178851 2.824828 5.178851 2.589425-0.706207-4.943448-3.295632-4.472644-12.476322-21.421609-20.244597-37.89977-16.478161-34.368736-34.133333-55.790345-55.084138-66.618851-9.18069-4.943448-14.830345-10.122299-22.127816-20.950804-24.717241-36.487356-34.133333-69.914483-26.365058-93.454713 8.709885-26.129655 36.016552-15.301149 74.387127 29.66069 5.414253 6.355862 10.357701 11.063908 11.063908 10.357701 0.706207-0.706207-3.06023-8.003678-8.709885-16.242759-13.417931-20.715402-50.14069-56.731954-65.677242-64.50023-12.947126-6.355862-17.41977-7.062069-28.954483-3.531034zM772.11954 279.187126c-15.536552 8.003678-52.965517 44.491034-66.148046 65.206437-10.593103 16.478161-10.122299 20.950805 0.706207 7.297471 13.888736-17.184368 34.83954-36.487356 44.961839-40.96 19.773793-8.945287 28.248276-5.649655 32.485517 13.182529 4.237241 18.361379 0.235402 39.076782-11.770114 63.323219-13.653333 26.60046-23.775632 39.312184-38.135173 47.551264-23.54023 13.417931-38.370575 31.77931-55.31954 68.266667-5.885057 12.476322-13.888736 27.542069-17.655173 33.191724l-7.297471 10.593103 6.826667-4.237241c10.593103-6.826667 19.067586-15.301149 35.310345-36.016552 17.655172-22.598621 29.425287-32.014713 46.13885-36.958161 17.890575-5.178851 29.896092-13.417931 47.08046-31.543908 25.423448-27.071264 37.193563-52.023908 40.489195-86.628046 1.647816-16.478161-2.824828-47.786667-8.474482-60.262988-3.295632-7.532874-15.771954-15.301149-26.835862-16.948966-7.532874-1.177011-12.005517-0.235402-22.363219 4.943448zM545.662529 295.90069c-6.355862 7.062069-13.653333 22.598621-13.653334 28.71908 0 5.885057 0 5.885057 7.532874-1.883218 8.003678-8.003678 22.834023-16.713563 28.954483-16.713563 6.355862 0 3.766437-3.531034-6.591265-8.003679-5.414253-2.589425-10.593103-4.943448-11.29931-5.414253-0.706207-0.470805-3.06023 0.941609-4.943448 3.295633zM681.489655 294.95908c-2.589425 1.883218-7.768276 4.472644-11.770115 5.649656-6.355862 2.354023-6.591264 2.589425-2.354023 4.237241 15.771954 5.649655 19.773793 7.768276 28.954483 16.007356 9.416092 8.945287 9.886897 9.18069 9.886897 3.531035 0-5.885057-13.653333-30.366897-17.655173-31.779311-1.412414-0.470805-4.472644 0.706207-7.062069 2.354023z" p-id="7092" fill="#130b0b"></path><path d="M358.517701 317.086897c5.649655 34.368736 32.250115 112.993103 47.551265 140.770574 20.48 36.487356 47.08046 66.383448 72.503908 80.978391 17.655172 10.122299 22.598621 19.067586 10.593103 19.067586-5.178851 0-22.363218-8.474483-37.193563-18.596781-5.649655-4.001839-10.828506-6.591264-11.534713-5.885058-2.118621 2.118621 26.835862 29.425287 36.487356 33.897931 18.125977 8.945287 33.427126 4.708046 45.668046-12.240919 4.001839-5.178851 7.062069-10.593103 7.062069-11.534713 0-4.001839-11.29931-9.18069-28.248275-12.711724-23.775632-4.943448-39.782989-12.711724-53.907127-25.894253-22.127816-20.715402-34.368736-51.553103-43.784827-110.874483-9.651494-59.321379-16.713563-77.211954-33.427127-83.567816-11.063908-4.237241-13.182529-3.06023-11.770115 6.591265zM862.278621 313.085057c-14.830345 8.945287-19.067586 20.715402-28.012874 75.328736-10.122299 63.323218-20.950805 92.513103-42.137011 114.405517-14.830345 15.065747-26.129655 20.950805-52.259311 26.835862-26.835862 6.355862-31.308506 8.23908-31.308505 14.124138 0 2.824828 4.472644 9.886897 10.122298 15.771954 8.474483 8.709885 11.770115 10.828506 20.715403 11.770115 14.124138 1.647816 27.306667-4.943448 43.784827-22.127816 12.711724-12.947126 16.713563-20.715402 7.297472-13.888735-26.129655 18.361379-48.963678 27.777471-48.963679 19.773793 0-4.472644 7.768276-11.534713 22.127816-19.773793 44.726437-25.658851 84.744828-96.27954 108.049656-190.44046 9.886897-39.547586 9.416092-36.487356 3.531034-36.487357-3.06023 0-8.709885 2.118621-12.947126 4.708046zM594.390805 320.853333c-6.591264 3.531034-13.417931 11.29931-22.363219 24.952644-14.594943 21.657011-23.54023 30.837701-30.837701 30.837701-4.237241 0-4.708046 0.941609-3.295632 7.532874 3.295632 15.771954 16.007356 42.137011 34.368736 71.562299 19.538391 31.543908 26.60046 49.19908 29.425287 73.916321 2.589425 23.775632 15.065747 32.72092 28.012873 20.009196 4.472644-4.708046 5.885057-8.474483 5.885058-16.007357 0-23.304828 7.768276-42.137011 38.370575-91.806896 15.065747-24.481839 22.834023-41.666207 26.365057-57.673563 1.412414-6.591264 0.941609-7.532874-3.295632-7.532874-6.591264 0-20.009195-12.24092-30.837701-28.012873-10.828506-16.007356-22.598621-27.306667-31.308506-30.602299-11.29931-4.472644-30.131494-3.06023-40.489195 2.824827z" p-id="7093" fill="#130b0b"></path><path d="M446.087356 477.631264c-2.354023 7.297471 4.237241 19.302989 17.184368 31.308506 24.481839 22.834023 43.314023 15.771954 26.835862-10.122299-12.476322-19.302989-40.253793-32.72092-44.02023-21.186207zM765.99908 480.691494c-11.770115 8.003678-21.186207 19.773793-23.540229 29.425288-6.591264 26.129655 35.310345 7.297471 47.315862-21.42161 7.062069-16.713563-4.708046-20.715402-23.775633-8.003678zM522.593103 514.824828c10.828506 7.297471 22.363218 20.715402 44.491035 52.023908 27.777471 39.076782 38.841379 49.905287 52.023908 49.905287 13.182529 0 24.952644-11.29931 49.905287-47.786667 21.892414-32.250115 32.72092-45.197241 43.078621-51.553103 4.237241-2.589425 5.649655-4.237241 3.295632-4.237242-5.649655 0-23.304828 14.35954-33.897931 27.306667-14.830345 18.596782-41.901609 45.903448-48.728276 49.434483-16.948966 8.945287-29.896092 2.118621-59.556781-31.073104-26.365057-29.425287-40.724598-42.843218-49.199081-45.432643l-7.297471-2.354023 5.885057 3.766437zM485.634943 723.391264c-0.706207 16.478161-5.414253 37.89977-19.538391 91.10069-15.536552 58.144368-18.832184 74.857931-18.832184 94.867126 0 14.35954 0.941609 18.361379 5.885057 25.658851 5.178851 7.768276 8.474483 9.651494 26.60046 15.065747 20.009195 6.12046 35.781149 16.478161 35.781149 23.54023 0 1.647816 0.941609 3.531034 2.118621 4.472644 1.412414 0.706207 0.706207-3.531034-1.412414-9.416092-2.354023-7.297471-9.651494-17.184368-21.657011-30.366897-23.775632-25.658851-27.306667-36.016552-25.423448-71.797701 0.706207-13.653333 4.708046-41.901609 8.474482-62.617011 10.357701-55.31954 14.594943-92.983908 10.357702-92.983908-1.177011 0-2.118621 5.649655-2.354023 12.476321zM749.991724 731.630345c0.706207 12.005517 4.943448 42.372414 9.651494 67.089655 6.355862 34.133333 8.474483 52.023908 8.709885 73.445517 0.235402 34.83954-3.06023 43.549425-25.423448 66.854253-13.888736 14.35954-27.306667 36.251954-24.011034 39.547586 0.706207 0.706207 2.354023-1.177011 3.531034-4.237241 5.414253-12.476322 13.182529-17.890575 36.958161-24.481839 37.428966-10.357701 40.253793-31.543908 15.771954-122.409196-12.947126-48.492874-19.538391-75.79954-23.069425-97.456551l-3.295632-20.244598 1.177011 21.892414zM594.626207 785.302069c-28.71908 9.18069-46.374253 29.189885-46.609655 52.965517 0 8.945287 1.647816 14.124138 6.120459 21.186207 7.297471 11.063908 12.711724 12.476322 6.12046 1.412414-6.591264-10.593103-5.885057-27.542069 0.941609-27.542069 1.412414 0 9.651494 8.23908 18.36138 18.596782 21.421609 25.188046 37.89977 32.014713 55.084138 23.069425 7.062069-3.766437 28.71908-24.481839 35.310345-34.133334 10.122299-14.830345 17.655172 4.237241 7.768275 20.48-6.591264 10.828506-4.001839 11.770115 4.001839 1.412414 8.945287-11.770115 10.593103-31.543908 3.766437-45.197241-6.12046-11.770115-19.067586-23.304828-33.191724-29.425287-14.594943-6.355862-42.607816-7.768276-57.673563-2.824828zM599.098851 906.063448c-5.178851 2.354023-17.890575 9.416092-28.248276 15.536552-10.357701 6.355862-24.717241 14.124138-31.779311 17.184368l-12.947126 5.414253 10.593103-1.412414c5.885057-0.706207 22.363218-4.708046 36.487357-8.945287 35.310345-10.122299 56.025747-10.122299 91.806896 0.235402 14.35954 4.001839 30.602299 8.003678 36.487357 8.709885l10.593103 1.177011-12.24092-4.472643c-6.826667-2.589425-20.009195-9.651494-29.425287-15.771954-34.83954-22.363218-51.553103-26.60046-71.326896-17.655173z" p-id="7094" fill="#130b0b"></path></svg>